<svg width="100%" height="100" viewBox="0 0 500 100" xmlns="http://www.w3.org/2000/svg">
  <!-- Background -->
  <rect width="500" height="100" style="fill:none;" />

  <!-- Number Keys Background -->
  <rect x="10" y="20" width="40" height="40" rx="5" ry="5" style="fill:white;stroke:black;stroke-width:2;" />
  <rect x="60" y="20" width="40" height="40" rx="5" ry="5" style="fill:white;stroke:black;stroke-width:2;" />
  <rect x="110" y="20" width="40" height="40" rx="5" ry="5" style="fill:white;stroke:black;stroke-width:2;" />
  <rect x="160" y="20" width="40" height="40" rx="5" ry="5" style="fill:white;stroke:black;stroke-width:2;" />
  <rect x="210" y="20" width="40" height="40" rx="5" ry="5" style="fill:white;stroke:black;stroke-width:2;" />
  <rect x="260" y="20" width="40" height="40" rx="5" ry="5" style="fill:white;stroke:black;stroke-width:2;" />
  <rect x="310" y="20" width="40" height="40" rx="5" ry="5" style="fill:white;stroke:black;stroke-width:2;" />
  <rect x="360" y="20" width="40" height="40" rx="5" ry="5" style="fill:white;stroke:black;stroke-width:2;" />
  <rect x="410" y="20" width="40" height="40" rx="5" ry="5" style="fill:white;stroke:black;stroke-width:2;" />

  <!-- Number Keys Text -->
  <text x="30" y="45" font-family="Arial" font-size="20" fill="black" text-anchor="middle">1</text>
  <text x="80" y="45" font-family="Arial" font-size="20" fill="black" text-anchor="middle">2</text>
  <text x="130" y="45" font-family="Arial" font-size="20" fill="black" text-anchor="middle">3</text>
  <text x="180" y="45" font-family="Arial" font-size="20" fill="black" text-anchor="middle">4</text>
  <text x="230" y="45" font-family="Arial" font-size="20" fill="black" text-anchor="middle">5</text>
  <text x="280" y="45" font-family="Arial" font-size="20" fill="black" text-anchor="middle">6</text>
  <text x="330" y="45" font-family="Arial" font-size="20" fill="black" text-anchor="middle">7</text>
  <text x="380" y="45" font-family="Arial" font-size="20" fill="black" text-anchor="middle">8</text>
  <text x="430" y="45" font-family="Arial" font-size="20" fill="black" text-anchor="middle">9</text>
</svg>
